<svg width="42" height="42" viewBox="0 0 42 42" fill="none" xmlns="http://www.w3.org/2000/svg">
<path d="M21 30.375C26.1777 30.375 30.375 26.1777 30.375 21C30.375 15.8223 26.1777 11.625 21 11.625C15.8223 11.625 11.625 15.8223 11.625 21C11.625 26.1777 15.8223 30.375 21 30.375Z" stroke="black" stroke-width="3" stroke-linecap="round" stroke-linejoin="round"/>
<path d="M19.9984 4.62384L16.3129 1.86057C16.1152 1.71182 15.8849 1.61219 15.6411 1.56989C15.3973 1.52759 15.147 1.54384 14.9107 1.61729C13.7693 1.97472 12.6619 2.43289 11.6016 2.9864C11.3821 3.10153 11.1931 3.2672 11.0503 3.46975C10.9075 3.67231 10.8148 3.90592 10.7801 4.15132L10.1286 8.71205C9.88023 8.93218 9.6371 9.16114 9.39919 9.39892C9.16135 9.63676 8.93233 9.87996 8.71215 10.1285L8.71205 10.1286L4.15213 10.7807C3.90712 10.8153 3.67386 10.9077 3.47155 11.0501C3.26925 11.1926 3.1037 11.3812 2.98856 11.6002C2.4342 12.66 1.97513 13.767 1.61678 14.9082C1.54299 15.1448 1.52652 15.3955 1.56874 15.6398C1.61096 15.884 1.71066 16.1147 1.85961 16.3128L4.62384 19.9984C4.60389 20.3297 4.59387 20.6635 4.59377 20.9998C4.59377 21.3362 4.6038 21.6701 4.62385 22.0015L4.62384 22.0017L1.86057 25.6871C1.71182 25.8848 1.61219 26.1151 1.56989 26.3589C1.52759 26.6027 1.54384 26.8531 1.61729 27.0894C1.97472 28.2308 2.43289 29.3382 2.9864 30.3984C3.10153 30.6179 3.2672 30.8069 3.46975 30.9497C3.67231 31.0926 3.90592 31.1852 4.15132 31.22L8.71204 31.8715C8.93217 32.1198 9.16113 32.3629 9.39891 32.6009C9.63675 32.8387 9.87994 33.0677 10.1285 33.2879L10.1286 33.288L10.7806 37.8479C10.8153 38.0929 10.9077 38.3262 11.0501 38.5285C11.1926 38.7308 11.3811 38.8963 11.6002 39.0115C12.66 39.5658 13.767 40.0249 14.9082 40.3833C15.1448 40.4571 15.3955 40.4735 15.6398 40.4313C15.884 40.3891 16.1147 40.2894 16.3128 40.1404L19.9984 37.3762C20.3296 37.3962 20.6635 37.4062 20.9998 37.4063C21.3362 37.4063 21.6701 37.3962 22.0015 37.3762L22.0017 37.3762L25.6871 40.1395C25.8848 40.2882 26.1151 40.3879 26.3589 40.4302C26.6027 40.4725 26.8531 40.4562 27.0894 40.3828C28.2308 40.0253 29.3382 39.5672 30.3984 39.0136C30.6179 38.8985 30.8069 38.7328 30.9497 38.5303C31.0926 38.3277 31.1852 38.0941 31.22 37.8487L31.8715 33.288C32.1198 33.0679 32.3629 32.8389 32.6009 32.6011C32.8387 32.3633 33.0677 32.1201 33.2879 31.8716L33.288 31.8715L37.8479 31.2194C38.0929 31.1848 38.3262 31.0924 38.5285 30.9499C38.7308 30.8074 38.8963 30.6189 39.0115 30.3999C39.5658 29.34 40.0249 28.233 40.3833 27.0919C40.4571 26.8553 40.4735 26.6045 40.4313 26.3603C40.3891 26.1161 40.2894 25.8854 40.1404 25.6873L37.3762 22.0017C37.3962 21.6704 37.4062 21.3366 37.4063 21.0002C37.4063 20.6639 37.3962 20.33 37.3762 19.9985L37.3762 19.9984L40.1395 16.3129C40.2882 16.1152 40.3879 15.8849 40.4302 15.6411C40.4725 15.3973 40.4562 15.147 40.3828 14.9107C40.0253 13.7693 39.5672 12.6619 39.0136 11.6016C38.8985 11.3821 38.7328 11.1931 38.5303 11.0503C38.3277 10.9075 38.0941 10.8148 37.8487 10.7801L33.288 10.1286C33.0679 9.88023 32.8389 9.6371 32.6011 9.39919C32.3633 9.16135 32.1201 8.93233 31.8716 8.71215L31.8715 8.71205L31.2194 4.15213C31.1848 3.90712 31.0924 3.67386 30.9499 3.47155C30.8074 3.26925 30.6189 3.1037 30.3999 2.98856C29.34 2.4342 28.233 1.97513 27.0919 1.61678C26.8553 1.54299 26.6045 1.52652 26.3603 1.56874C26.1161 1.61096 25.8854 1.71066 25.6873 1.85961L22.0017 4.62384C21.6704 4.60389 21.3366 4.59387 21.0002 4.59377C20.6639 4.59377 20.33 4.6038 19.9985 4.62385L19.9984 4.62384Z" stroke="black" stroke-width="3" stroke-linecap="round" stroke-linejoin="round"/>
</svg>
