<svg width="46" height="41" viewBox="0 0 46 41" fill="none" xmlns="http://www.w3.org/2000/svg">
<path d="M2.84082 20.5H11.2499L14.6135 15.4546L21.3408 25.5455L24.7044 20.5H29.7499" stroke="black" stroke-width="3" stroke-linecap="round" stroke-linejoin="round"/>
<path d="M2.02402 13.7714C2.00812 13.4925 2.00011 13.2127 2 12.9318C2.00043 10.4052 2.87592 7.95666 4.47762 6.00257C6.07933 4.04847 8.30837 2.70941 10.7858 2.21306C13.2632 1.71671 15.8361 2.09371 18.0669 3.27995C20.2978 4.46619 22.049 6.38846 23.0227 8.71993L23.0227 8.71995C23.9964 6.38847 25.7476 4.4662 27.9785 3.27996C30.2094 2.09371 32.7822 1.71672 35.2596 2.21306C37.7371 2.70941 39.9661 4.04847 41.5678 6.00256C43.1695 7.95666 44.045 10.4052 44.0454 12.9318C44.0454 27.2273 23.0227 39 23.0227 39C23.0227 39 14.6253 34.2974 8.44504 27.2275" stroke="black" stroke-width="3" stroke-linecap="round" stroke-linejoin="round"/>
</svg>
