<svg width="56" height="41" viewBox="0 0 56 41" fill="none" xmlns="http://www.w3.org/2000/svg">
<path d="M16.8481 20.5C16.8481 16.8411 17.9376 13.2643 19.9787 10.222C22.0199 7.17965 24.921 4.80846 28.3153 3.40824C31.7097 2.00802 35.4447 1.64165 39.048 2.35548C42.6514 3.06931 45.9613 4.83126 48.5592 7.41853C51.1571 10.0058 52.9263 13.3022 53.6431 16.8908C54.3598 20.4795 53.992 24.1992 52.586 27.5796C51.18 30.9601 48.7991 33.8494 45.7443 35.8822C42.6895 37.915 39.098 39 35.424 39H14.9905C13.1465 38.9982 11.3239 38.6058 9.64378 37.8489C7.96365 37.092 6.4644 35.9878 5.24553 34.6097C4.02665 33.2316 3.11605 31.611 2.57414 29.8556C2.03224 28.1002 1.87143 26.2501 2.1024 24.428C2.33336 22.606 2.95082 20.8537 3.91378 19.2875C4.87674 17.7213 6.16318 16.377 7.68772 15.3438C9.21225 14.3106 10.94 13.6121 12.7563 13.2948C14.5726 12.9775 16.4359 13.0485 18.2225 13.5032" stroke="black" stroke-width="3" stroke-linecap="round" stroke-linejoin="round"/>
<path d="M43 17L32.3333 29L27 23" stroke="black" stroke-width="3" stroke-linecap="round" stroke-linejoin="round"/>
</svg>
