<svg width="46" height="44" viewBox="0 0 46 44" fill="none" xmlns="http://www.w3.org/2000/svg">
<path d="M22 11.0907V21.9998" stroke="black" stroke-width="3" stroke-linecap="round" stroke-linejoin="round"/>
<path d="M31.4475 27.4547L22 22.0001" stroke="black" stroke-width="3" stroke-linecap="round" stroke-linejoin="round"/>
<path d="M34.7651 15.5721H43.856V6.4812" stroke="black" stroke-width="3" stroke-linecap="round" stroke-linejoin="round"/>
<path d="M36.1421 36.1421C33.3451 38.9392 29.7814 40.844 25.9018 41.6157C22.0222 42.3874 18.0008 41.9913 14.3463 40.4776C10.6918 38.9638 7.56823 36.4004 5.37061 33.1114C3.17298 29.8224 2 25.9556 2 22C2 18.0444 3.17298 14.1776 5.37061 10.8886C7.56823 7.59962 10.6918 5.03617 14.3463 3.52242C18.0008 2.00867 22.0222 1.6126 25.9018 2.3843C29.7814 3.15601 33.3451 5.06082 36.1421 7.85787L43.856 15.5718" stroke="black" stroke-width="3" stroke-linecap="round" stroke-linejoin="round"/>
</svg>
