<svg width="45" height="41" viewBox="0 0 45 41" fill="none" xmlns="http://www.w3.org/2000/svg">
<path d="M38.791 21.3007L21.9141 38.1776C21.3875 38.7042 20.6733 39 19.9286 39C19.1839 39 18.4697 38.7042 17.9431 38.1776L3.05094 23.2854C2.7902 23.0247 2.58337 22.7152 2.44226 22.3745C2.30115 22.0338 2.22852 21.6687 2.22852 21.2999C2.22852 20.9312 2.30115 20.566 2.44226 20.2254C2.58337 19.8847 2.7902 19.5751 3.05094 19.3144L19.9279 2.4375L38.791 21.3007Z" stroke="black" stroke-width="3" stroke-linecap="round" stroke-linejoin="round"/>
<path d="M21.423 23.4983C23.3615 23.4983 24.933 21.9268 24.933 19.9883C24.933 18.0498 23.3615 16.4784 21.423 16.4784C19.4845 16.4784 17.9131 18.0498 17.9131 19.9883C17.9131 21.9268 19.4845 23.4983 21.423 23.4983Z" stroke="black" stroke-width="3" stroke-linecap="round" stroke-linejoin="round"/>
<path d="M36.1648 35.4309C36.1648 31.922 39.6747 28.411 39.6747 28.411C39.6747 28.411 43.1847 31.922 43.1847 35.4309C43.1847 36.3618 42.8149 37.2545 42.1566 37.9128C41.4984 38.571 40.6056 38.9408 39.6747 38.9408C38.7438 38.9408 37.8511 38.571 37.1928 37.9128C36.5346 37.2545 36.1648 36.3618 36.1648 35.4309V35.4309Z" stroke="black" stroke-width="3" stroke-linecap="round" stroke-linejoin="round"/>
<path d="M18.9412 17.5064L6.30542 4.87061" stroke="black" stroke-width="3" stroke-linecap="round" stroke-linejoin="round"/>
</svg>
