<svg width="35" height="44" viewBox="0 0 35 44" fill="none" xmlns="http://www.w3.org/2000/svg">
<path d="M26.0644 6.23215C23.749 3.95177 20.7067 2.69446 17.5001 2.69446C10.8205 2.69446 5.38477 8.13023 5.38477 14.8098V33.656C5.38477 34.3991 5.98784 35.0021 6.73092 35.0021H9.42323C10.1663 35.0021 10.7694 34.3991 10.7694 33.656C10.7694 32.9129 10.1663 32.3098 9.42323 32.3098H8.07707V14.8098C8.07707 9.61369 12.304 5.38677 17.5001 5.38677C19.9959 5.38677 22.3678 6.36677 24.1609 8.13561C25.9432 9.94215 26.9232 12.3114 26.9232 14.8098V32.3098H25.5771C24.834 32.3098 24.2309 32.9129 24.2309 33.656C24.2309 34.3991 24.834 35.0021 25.5771 35.0021H28.2694C29.0125 35.0021 29.6155 34.3991 29.6155 33.656V14.8098C29.6155 11.6006 28.3582 8.5583 26.0644 6.23215Z" fill="black"/>
<path d="M20.1922 32.3096H14.8076C14.0645 32.3096 13.4614 32.9126 13.4614 33.6557C13.4614 34.3988 14.0645 35.0019 14.8076 35.0019H20.1922C20.9353 35.0019 21.5383 34.3988 21.5383 33.6557C21.5383 32.9126 20.9353 32.3096 20.1922 32.3096Z" fill="black"/>
<path d="M14.8077 32.3096C14.0646 32.3096 13.4615 32.9126 13.4615 33.6557V39.0403C13.4615 39.7807 12.8584 40.3865 12.1154 40.3865C11.3723 40.3865 10.7692 39.7807 10.7692 39.0403V33.6557C10.7692 32.9126 10.1661 32.3096 9.42306 32.3096C8.67998 32.3096 8.0769 32.9126 8.0769 33.6557V39.0403C8.0769 41.2669 9.88883 43.0788 12.1154 43.0788C14.3419 43.0788 16.1538 41.2669 16.1538 39.0403V33.6557C16.1538 32.9126 15.5507 32.3096 14.8077 32.3096Z" fill="black"/>
<path d="M25.577 32.3096C24.8339 32.3096 24.2308 32.9126 24.2308 33.6557V39.0403C24.2308 39.7807 23.625 40.3865 22.8847 40.3865C22.1443 40.3865 21.5385 39.7807 21.5385 39.0403V33.6557C21.5385 32.9126 20.9354 32.3096 20.1923 32.3096C19.4493 32.3096 18.8462 32.9126 18.8462 33.6557V39.0403C18.8462 41.2669 20.6581 43.0788 22.8847 43.0788C25.1112 43.0788 26.9231 41.2669 26.9231 39.0403V33.6557C26.9231 32.9126 26.32 32.3096 25.577 32.3096Z" fill="black"/>
<path d="M1.34615 13.4634C0.603077 13.4634 0 14.0665 0 14.8095V28.2711C0 29.0141 0.603077 29.6172 1.34615 29.6172C2.08923 29.6172 2.69231 29.0141 2.69231 28.2711V14.8095C2.69231 14.0665 2.08923 13.4634 1.34615 13.4634Z" fill="black"/>
<path d="M33.6538 13.4634C32.9107 13.4634 32.3076 14.0665 32.3076 14.8095V28.2711C32.3076 29.0141 32.9107 29.6172 33.6538 29.6172C34.3968 29.6172 34.9999 29.0141 34.9999 28.2711V14.8095C34.9999 14.0665 34.3968 13.4634 33.6538 13.4634Z" fill="black"/>
<path d="M28.2694 13.4634H6.73092C5.98784 13.4634 5.38477 14.0665 5.38477 14.8095C5.38477 15.5526 5.98784 16.1557 6.73092 16.1557H28.2694C29.0125 16.1557 29.6155 15.5526 29.6155 14.8095C29.6155 14.0665 29.0125 13.4634 28.2694 13.4634Z" fill="black"/>
<path d="M11.4154 6.1109L7.8616 0.618588C7.45775 -0.00871942 6.62314 -0.186412 6.00121 0.217434C5.3766 0.621281 5.19621 1.4559 5.60006 2.07782L9.15391 7.57013C9.40968 7.96859 9.84314 8.18666 10.2847 8.18666C10.5378 8.18666 10.7881 8.11666 11.0143 7.97128C11.6389 7.56743 11.8193 6.73282 11.4154 6.1109Z" fill="black"/>
<path d="M28.9504 0.185074C28.3177 -0.189156 27.4858 0.0208436 27.1088 0.664305L23.7704 6.34507C23.3935 6.98854 23.6088 7.81238 24.2496 8.18931C24.4623 8.31584 24.6965 8.37507 24.9308 8.37507C25.3912 8.37507 25.8408 8.13546 26.0912 7.71007L29.4296 2.02931C29.8065 1.38584 29.5912 0.561997 28.9504 0.185074Z" fill="black"/>
<path d="M20.2461 8.07898H20.2192C19.4734 8.07898 18.8865 8.68206 18.8865 9.42513C18.8865 10.1682 19.503 10.7713 20.2461 10.7713C20.9892 10.7713 21.5922 10.1682 21.5922 9.42513C21.5922 8.68206 20.9892 8.07898 20.2461 8.07898Z" fill="black"/>
<path d="M14.8616 8.07898H14.8346C14.0916 8.07898 13.502 8.68206 13.502 9.42513C13.502 10.1682 14.1185 10.7713 14.8616 10.7713C15.6046 10.7713 16.2077 10.1682 16.2077 9.42513C16.2077 8.68206 15.6046 8.07898 14.8616 8.07898Z" fill="black"/>
</svg>
