<svg width="79" height="79" viewBox="0 0 79 79" fill="none" xmlns="http://www.w3.org/2000/svg">
<path d="M37.2441 55.4414H41.7559V59.9531H37.2441V55.4414Z" fill="white" stroke="#7C00B7"/>
<path d="M28.2207 55.4414H32.7324V59.9531H28.2207V55.4414Z" fill="white" stroke="#7C00B7"/>
<path d="M10.1738 55.4414H23.709V59.9531H10.1738V55.4414Z" fill="white" stroke="#7C00B7"/>
<path d="M64.3145 1V5.51172H55.291V1H23.709V5.51172H14.6855V1H1V68.9766H5.51172V78H73.4883V68.9766H78C78 68.255 78 5.50841 78 1H64.3145ZM28.2207 5.51172H50.7793V10.0234H28.2207V5.51172ZM37.2441 19.0469V14.5352H41.7559V19.0469H37.2441ZM23.709 10.0234V14.5352H32.7324V23.5586H37.2441V32.8828H41.7559V23.5586H46.2676V14.5352H55.291V10.0234H64.3145V46.418H59.8027V37.3945H19.1973V46.418H14.6855V10.0234H23.709ZM55.291 46.418H23.709V41.9062H55.291V46.418ZM5.51172 5.51172H10.1738V46.418H5.51172V5.51172ZM68.9766 73.4883H10.0234V68.9766H68.9766V73.4883ZM73.4883 64.4648H5.51172V50.9297H73.4883V64.4648ZM68.8262 46.418V5.51172H73.4883V46.418H68.8262Z" fill="white" stroke="#7C00B7"/>
</svg>
