<svg width="79" height="52" viewBox="0 0 79 52" fill="none" xmlns="http://www.w3.org/2000/svg">
<path d="M25.9327 36.5715C35.4783 36.5715 43.2165 28.8333 43.2165 19.2877C43.2165 9.74212 35.4783 2.00389 25.9327 2.00389C16.3872 2.00389 8.64893 9.74212 8.64893 19.2877C8.64893 28.8333 16.3872 36.5715 25.9327 36.5715Z" stroke="white" stroke-width="4" stroke-miterlimit="10"/>
<path d="M48.3394 2.64778C50.7166 1.97799 53.2098 1.8254 55.651 2.20031C58.0922 2.57521 60.4247 3.46889 62.4914 4.82116C64.5581 6.17342 66.3111 7.95288 67.6322 10.0397C68.9533 12.1264 69.8118 14.4721 70.1501 16.9186C70.4883 19.3652 70.2983 21.8558 69.5929 24.2227C68.8875 26.5897 67.6831 28.778 66.0607 30.6402C64.4384 32.5025 62.4358 33.9955 60.1879 35.0186C57.94 36.0417 55.4989 36.5713 53.0291 36.5716" stroke="white" stroke-width="4" stroke-linecap="round" stroke-linejoin="round"/>
<path d="M2 49.0015C4.69938 45.1618 8.28297 42.028 12.4482 39.8646C16.6135 37.7012 21.2381 36.5717 25.9317 36.5715C30.6253 36.5713 35.25 37.7005 39.4154 39.8635C43.5809 42.0266 47.1647 45.1602 49.8644 48.9996" stroke="white" stroke-width="4" stroke-linecap="round" stroke-linejoin="round"/>
<path d="M53.0288 36.5715C57.7228 36.5681 62.3485 37.6959 66.5143 39.8592C70.6801 42.0226 74.2632 45.1579 76.9603 48.9997" stroke="white" stroke-width="4" stroke-linecap="round" stroke-linejoin="round"/>
</svg>
