<svg width="72" height="67" viewBox="0 0 72 67" fill="none" xmlns="http://www.w3.org/2000/svg">
<path d="M29 18V59.8189C29 60.264 28.8943 60.7023 28.6924 61.0948C28.4904 61.4873 28.1984 61.8219 27.8422 62.0688L24.2698 64.5458C23.9231 64.7862 23.526 64.9364 23.1118 64.9838C22.6977 65.0312 22.2786 64.9743 21.89 64.8181C21.5014 64.6618 21.1546 64.4107 20.8788 64.0859C20.603 63.7611 20.4062 63.3721 20.3052 62.9517L16 45.0413" stroke="white" stroke-width="4" stroke-linecap="round" stroke-linejoin="round"/>
<path d="M15.6 45.2486C11.9931 45.2486 8.53384 43.8001 5.98335 41.2218C3.43285 38.6434 2 35.1464 2 31.5C2 27.8536 3.43285 24.3566 5.98335 21.7782C8.53384 19.1999 11.9931 17.7514 15.6 17.7514H29.2C29.2 17.7514 47.7136 17.7514 65.5294 2.64585C65.9256 2.30871 66.4088 2.09297 66.9222 2.02397C67.4356 1.95498 67.9577 2.03562 68.4273 2.2564C68.8969 2.47719 69.2944 2.82893 69.573 3.27027C69.8516 3.71162 69.9997 4.2242 70 4.74776V58.2522C69.9997 58.7758 69.8516 59.2884 69.573 59.7297C69.2944 60.1711 68.8969 60.5228 68.4273 60.7436C67.9577 60.9644 67.4356 61.045 66.9222 60.976C66.4088 60.907 65.9256 60.6913 65.5294 60.3541C47.7136 45.2486 29.2 45.2486 29.2 45.2486H15.6Z" stroke="white" stroke-width="4" stroke-linecap="round" stroke-linejoin="round"/>
</svg>
