<svg width="56" height="56" viewBox="0 0 56 56" fill="none" xmlns="http://www.w3.org/2000/svg">
<path d="M26.3594 39.5938H29.6406V42.875H26.3594V39.5938Z" fill="white"/>
<path d="M19.7969 39.5938H23.0781V42.875H19.7969V39.5938Z" fill="white"/>
<path d="M6.67188 39.5938H16.5156V42.875H6.67188V39.5938Z" fill="white"/>
<path d="M46.0469 0V3.28125H39.4844V0H16.5156V3.28125H9.95312V0H0V49.4375H3.28125V56H52.7188V49.4375H56C56 48.9127 56 3.27884 56 0H46.0469ZM19.7969 3.28125H36.2031V6.5625H19.7969V3.28125ZM26.3594 13.125V9.84375H29.6406V13.125H26.3594ZM16.5156 6.5625V9.84375H23.0781V16.4062H26.3594V23.1875H29.6406V16.4062H32.9219V9.84375H39.4844V6.5625H46.0469V33.0312H42.7656V26.4688H13.2344V33.0312H9.95312V6.5625H16.5156ZM39.4844 33.0312H16.5156V29.75H39.4844V33.0312ZM3.28125 3.28125H6.67188V33.0312H3.28125V3.28125ZM49.4375 52.7188H6.5625V49.4375H49.4375V52.7188ZM52.7188 46.1562H3.28125V36.3125H52.7188V46.1562ZM49.3281 33.0312V3.28125H52.7188V33.0312H49.3281Z" fill="white"/>
</svg>
