<svg width="54" height="54" viewBox="0 0 54 54" fill="none" xmlns="http://www.w3.org/2000/svg">
<path d="M42.9258 0C36.8195 0 31.8516 4.96789 31.8516 11.0742V12.6562H12.6562V6.32812H6.32812C2.8388 6.32812 0 9.16692 0 12.6562V47.6719C0 51.1612 2.8388 54 6.32812 54H42.9258C49.0321 54 54 49.0321 54 42.9258V11.0742C54 4.96789 49.0321 0 42.9258 0ZM3.16406 12.6562C3.16406 10.9116 4.58346 9.49219 6.32812 9.49219H9.49219V41.3438H6.32812C5.17641 41.3438 4.09535 41.6531 3.16406 42.193V12.6562ZM6.32812 50.8359C4.58346 50.8359 3.16406 49.4165 3.16406 47.6719C3.16406 45.9272 4.58346 44.5078 6.32812 44.5078H12.6562V15.8203H31.8516V42.9258C31.8516 46.0217 33.1291 48.8243 35.184 50.8359C33.8328 50.8359 7.60493 50.8359 6.32812 50.8359ZM42.9258 50.8359C38.5641 50.8359 35.0156 47.2874 35.0156 42.9258C35.0156 38.5641 38.5641 35.0156 42.9258 35.0156C47.2874 35.0156 50.8359 38.5641 50.8359 42.9258C50.8359 47.2874 47.2874 50.8359 42.9258 50.8359ZM42.9258 31.8516C39.8299 31.8516 37.0272 33.1291 35.0156 35.184V11.0742C35.0156 6.71256 38.5641 3.16406 42.9258 3.16406C47.2874 3.16406 50.8359 6.71256 50.8359 11.0742V35.184C48.8243 33.1291 46.0217 31.8516 42.9258 31.8516Z" fill="white"/>
</svg>
