<svg width="88" height="88" viewBox="0 0 88 88" fill="none" xmlns="http://www.w3.org/2000/svg">
<path d="M32.3326 63.4457C28.4436 75.1129 12.8872 75.1129 12.8872 75.1129C12.8872 75.1129 12.8872 59.5566 24.5545 55.6675" stroke="#7C00B7" stroke-width="5" stroke-linecap="round" stroke-linejoin="round"/>
<path d="M67.3345 36.2219L44 59.5564L28.4436 44.0001L51.7781 20.6656C60.6139 11.8298 69.4497 11.916 73.218 12.4782C73.7981 12.5647 74.3352 12.8352 74.75 13.25C75.1648 13.6648 75.4354 14.2019 75.5219 14.7821C76.0841 18.5503 76.1703 27.3861 67.3345 36.2219Z" stroke="#7C00B7" stroke-width="5" stroke-linecap="round" stroke-linejoin="round"/>
<path d="M63.4454 40.1108V62.3063C63.4454 62.6674 63.3743 63.025 63.2361 63.3587C63.0979 63.6923 62.8953 63.9955 62.64 64.2508L51.5225 75.3683C51.1705 75.7203 50.7296 75.9701 50.2468 76.0912C49.764 76.2122 49.2574 76.2 48.781 76.0558C48.3047 75.9115 47.8763 75.6407 47.5418 75.2721C47.2072 74.9036 46.979 74.4512 46.8814 73.9631L44 59.5563" stroke="#7C00B7" stroke-width="5" stroke-linecap="round" stroke-linejoin="round"/>
<path d="M47.8891 24.5547H25.6937C25.3325 24.5547 24.9749 24.6258 24.6413 24.764C24.3076 24.9022 24.0045 25.1048 23.7491 25.3601L12.6316 36.4776C12.2797 36.8296 12.0298 37.2705 11.9088 37.7533C11.7877 38.2361 11.7999 38.7427 11.9442 39.2191C12.0884 39.6955 12.3592 40.1238 12.7278 40.4583C13.0963 40.7929 13.5488 41.0211 14.0369 41.1188L28.4437 44.0001" stroke="#7C00B7" stroke-width="5" stroke-linecap="round" stroke-linejoin="round"/>
</svg>
