<svg width="66" height="57" viewBox="0 0 66 57" fill="none" xmlns="http://www.w3.org/2000/svg">
<path d="M3 8.1V48.9C3 50.2526 3.54969 51.5498 4.52814 52.5062C5.50659 53.4627 6.83365 54 8.21739 54H60.3913C61.0832 54 61.7467 53.7313 62.2359 53.2531C62.7252 52.7749 63 52.1263 63 51.45V15.75C63 15.0737 62.7252 14.4251 62.2359 13.9469C61.7467 13.4687 61.0832 13.2 60.3913 13.2H8.21739C6.83365 13.2 5.50659 12.6627 4.52814 11.7062C3.54969 10.7498 3 9.4526 3 8.1ZM3 8.1C3 6.7474 3.54969 5.45019 4.52814 4.49376C5.50659 3.53732 6.83365 3 8.21739 3H52.5652" stroke="#7C00B7" stroke-width="5" stroke-linecap="round" stroke-linejoin="round"/>
</svg>
