<svg width="60" height="60" viewBox="0 0 60 60" fill="none" xmlns="http://www.w3.org/2000/svg">
<path d="M58.2422 56.4844H56.3672V31.1678C58.452 30.099 59.8828 27.9291 59.8828 25.4297V20.7422C59.8828 20.4935 59.8301 20.2477 59.728 20.0208L56.0093 11.757C54.7815 9.02859 52.055 7.26562 49.063 7.26562H46.9922V1.75781C46.9922 0.787031 46.2052 0 45.2344 0H14.7656C13.7948 0 13.0078 0.787031 13.0078 1.75781V7.26562H10.937C7.94496 7.26562 5.21848 9.02859 3.99082 11.757L0.271992 20.0208C0.169922 20.2477 0.117188 20.4935 0.117188 20.7422V25.4297C0.117188 27.9289 1.54805 30.099 3.63281 31.1678V56.4844H1.75781C0.787031 56.4844 0 57.2714 0 58.2422C0 59.213 0.787031 60 1.75781 60H58.2422C59.213 60 60 59.213 60 58.2422C60 57.2714 59.213 56.4844 58.2422 56.4844ZM16.5234 3.51562H43.4766V11.7188H16.5234V3.51562ZM7.19672 13.1996C7.85777 11.7306 9.32602 10.7812 10.937 10.7812H13.0078V13.4766C13.0078 14.4473 13.7948 15.2344 14.7656 15.2344H45.2344C46.2052 15.2344 46.9922 14.4473 46.9922 13.4766V10.7812H49.063C50.6741 10.7812 52.1422 11.7306 52.8033 13.1998L55.4064 18.9844H4.59363L7.19672 13.1996ZM46.9922 22.5V25.4297C46.9922 27.0451 45.6779 28.3594 44.0625 28.3594C42.4471 28.3594 41.1328 27.0451 41.1328 25.4297V22.5H46.9922ZM37.6172 22.5V25.4297C37.6172 27.0451 36.3029 28.3594 34.6875 28.3594C33.0721 28.3594 31.7578 27.0451 31.7578 25.4297V22.5H37.6172ZM28.2422 22.5V25.4297C28.2422 27.0451 26.9279 28.3594 25.3125 28.3594C23.6971 28.3594 22.3828 27.0451 22.3828 25.4297V22.5H28.2422ZM18.8672 22.5V25.4297C18.8672 27.0451 17.5529 28.3594 15.9375 28.3594C14.3221 28.3594 13.0078 27.0451 13.0078 25.4297V22.5H18.8672ZM3.63281 25.4297V22.5H9.49219V25.4297C9.49219 27.0451 8.17793 28.3594 6.5625 28.3594C4.94707 28.3594 3.63281 27.0451 3.63281 25.4297ZM22.3828 56.4844H14.1797V38.9062H22.3828V56.4844ZM52.8516 56.4844H25.8984V37.1484C25.8984 36.1777 25.1114 35.3906 24.1406 35.3906H12.4219C11.4511 35.3906 10.6641 36.1777 10.6641 37.1484V56.4844H7.14844V31.8471C8.75918 31.7012 10.1999 30.9604 11.25 29.8465C12.4261 31.0939 14.0918 31.875 15.9375 31.875C17.7832 31.875 19.4489 31.0939 20.625 29.8465C21.8011 31.0939 23.4668 31.875 25.3125 31.875C27.1582 31.875 28.8239 31.0939 30 29.8465C31.1761 31.0939 32.8418 31.875 34.6875 31.875C36.5332 31.875 38.1989 31.0939 39.375 29.8465C40.5511 31.0939 42.2168 31.875 44.0625 31.875C45.9082 31.875 47.5739 31.0939 48.75 29.8465C49.8001 30.9604 51.2408 31.7012 52.8516 31.8471V56.4844ZM53.4375 28.3594C51.8221 28.3594 50.5078 27.0451 50.5078 25.4297V22.5H56.3672V25.4297C56.3672 27.0451 55.0529 28.3594 53.4375 28.3594Z" fill="#7C00B7"/>
</svg>
